<?xml version="1.0" encoding="UTF-8"?>
<svg width="337px" height="118px" viewBox="0 0 337 118" version="1.1" xmlns="http://www.w3.org/2000/svg" xmlns:xlink="http://www.w3.org/1999/xlink">
    <title>Group</title>
    <g id="Page-1" stroke="none" stroke-width="1" fill="none" fill-rule="evenodd">
        <g id="logo" transform="translate(-72.000000, -108.000000)">
            <g id="Group" transform="translate(72.964455, 108.242083)">
                <g id="Group-3" transform="translate(0.035545, 22.757917)">
                    <path d="M52.5,9 C75.9721019,9 95,28.0278981 95,51.5 C95,74.9721019 75.9721019,94 52.5,94 C29.0278981,94 10,74.9721019 10,51.5 C10,47.4302874 10.5720241,43.4941782 11.6400567,39.7676881 L52.4785925,53.3815776 L38.4744806,11.3687239 C42.8655693,9.83419816 47.5853659,9 52.5,9 Z" id="Combined-Shape" fill="#2B4C9F"></path>
                    <path d="M30.3531472,0.667391253 L46,47 L0.785906911,32.12285 C4.95577053,17.45347 16.0720289,5.70780539 30.3531472,0.667391253 Z" id="Combined-Shape" fill="#FFDF39"></path>
                </g>
                <g id="Group-2" transform="translate(96.535545, 0.757917)">
                    <text id="pium" font-family="ArialRoundedMTBold, Arial Rounded MT Bold" font-size="100" font-weight="normal" fill="#2B4C9F">
                        <tspan x="0.26171875" y="95">pium</tspan>
                    </text>
                    <rect id="Rectangle" fill="#FFDF39" x="66.5" y="20" width="18" height="18" rx="8"></rect>
                </g>
            </g>
        </g>
    </g>
</svg>